<svg width="47" height="32" fill="none" xmlns="http://www.w3.org/2000/svg"><path d="m46.7 15.8-6.5-8.2c-.3-.4-.7-.6-1.2-.6h-8.3V1.9c0-.8-.7-1.5-1.5-1.5H1.5C.7.4 0 1 0 1.9s.7 1.5 1.5 1.5h26.2V25H15.8a4.7 4.7 0 0 0-4.5-3.3 4.9 4.9 0 0 0-4.8 4.8c0 2.6 2.2 4.8 4.8 4.8 2.1 0 3.9-1.4 4.5-3.3h13.4c.8 0 1.5-.7 1.5-1.5V10h7.6l5.7 7.3v7.9h-2.2a4.7 4.7 0 0 0-4.5-3.3 4.9 4.9 0 0 0-4.8 4.8c0 2.6 2.1 4.8 4.8 4.8 2.1 0 3.9-1.4 4.5-3.3h3.7c.8 0 1.5-.7 1.5-1.5v-10l-.3-1ZM11.3 28.4c-1 0-1.8-.8-1.8-1.8s.8-1.8 1.8-1.8 1.8.8 1.8 1.8-.9 1.8-1.8 1.8Zm26.1 0c-1 0-1.8-.8-1.8-1.8s.8-1.8 1.8-1.8 1.8.8 1.8 1.8-.9 1.8-1.8 1.8Z" fill="#000"/><path d="M19.4 10c.8 0 1.5-.7 1.5-1.5S20.2 7 19.4 7H4.8c-.8 0-1.5.7-1.5 1.5S4 10 4.8 10h14.6ZM17.7 15c0-.7-.7-1.4-1.5-1.4H1.5c-.8 0-1.5.7-1.5 1.5s.7 1.5 1.5 1.5h14.7c.8 0 1.5-.7 1.5-1.5Z" fill="#000"/></svg>