<svg width="156" height="189" fill="none" xmlns="http://www.w3.org/2000/svg"><g clip-path="url(#a)"><path d="M141.25 84.13a14.75 14.75 0 1 0 0-29.5 14.75 14.75 0 0 0 0 29.5ZM89.11 140.04l-7.07 17.88-22.82 14.92a7.16 7.16 0 1 0 7.65 12.08c3.76-2.37 22.35-14.08 25.5-15.88 3.5-2 4.12-5.12 4.12-5.12l4.87-16-5.75-2.63c-5.75-2.62-6.5-5.25-6.5-5.25Z" fill="#fff"/><path d="M139.32 141.96s-1.16-3.83-4.58-5.17c-3.42-1.33-18.09-7.75-18.09-7.75l15.42-25.58s3.84-9-.33-13.42c-4.17-4.41-13.75-9.75-13.75-9.75h-7.52l15.8-26.8a12.03 12.03 0 0 0-4.25-16.43L72.63 7.95a12.03 12.03 0 0 0-16.43 4.24L9.14 92.02a12.04 12.04 0 0 0 4.25 16.43l49.39 29.11a12.04 12.04 0 0 0 16.43-4.24l22.93-38.9h8.1l-14.75 26.2s-5.13 9.22-.33 14.26c4.2 4.41 12.66 6.91 12.66 6.91l17.25 6.5 5.1 31.3h.01a7.16 7.16 0 0 0 14.2-1.7l.04-.01-5.1-35.92ZM17.96 100.7a3.04 3.04 0 0 1-1.06-4.11l47.06-79.83a3.04 3.04 0 0 1 4.1-1.06l11.52 6.8-50.1 84.99-11.52-6.8Zm53.5 28.05a3.04 3.04 0 0 1-4.11 1.06l-30.12-17.75 50.11-85 30.11 17.76c1.4.82 1.89 2.7 1.06 4.1L100.03 80.3h-8.78L71.32 94.72c-.44.25-.85.56-1.23.9l-.03.02a7.17 7.17 0 0 0 8.96 11.14l.08-.06c.18-.13.35-.27.52-.42l9.66-7.78-17.82 30.23Z" fill="#fff"/><path d="M49.22 6.44 2.16 86.27A12.04 12.04 0 0 0 6.4 102.7l49.4 29.12a12.04 12.04 0 0 0 16.43-4.24l47.05-79.83a12.03 12.03 0 0 0-4.24-16.44L65.65 2.2a12.04 12.04 0 0 0-16.43 4.24Zm-39.3 84.4 47.05-79.83a3.04 3.04 0 0 1 4.11-1.06l11.52 6.8-50.1 85-11.53-6.8a3.04 3.04 0 0 1-1.06-4.1Zm101.61-47.66L64.47 123a3.04 3.04 0 0 1-4.1 1.07L30.24 106.3l50.1-85 30.12 17.76c1.4.82 1.89 2.7 1.06 4.1Z" fill="#F0C42E"/><path d="M135.25 78.33a14.75 14.75 0 1 0 0-29.5 14.75 14.75 0 0 0 0 29.5ZM81.88 134.25l-7.08 17.88-22.82 14.91a7.16 7.16 0 1 0 7.65 12.09c3.76-2.37 22.35-14.09 25.5-15.88 3.5-2 4.12-5.13 4.12-5.13l4.88-16-5.75-2.62c-5.75-2.63-6.5-5.25-6.5-5.25ZM132.08 136.17s-1.16-3.84-4.58-5.17-18.08-7.75-18.08-7.75l15.41-25.58s3.84-9-.33-13.42-13.75-9.75-13.75-9.75H84L64.08 88.93a7.2 7.2 0 0 0-1.23.89l-.03.02a7.17 7.17 0 0 0 8.96 11.14l.08-.05.52-.43 14.75-11.88H103l-14.75 26.21s-5.13 9.22-.33 14.25c4.2 4.42 12.66 6.92 12.66 6.92l17.25 6.5 5.1 31.29h.01a7.16 7.16 0 0 0 14.2-1.7h.04l-5.1-35.92Z" fill="#3A3A3A"/></g><defs><clipPath id="a"><path fill="#fff" transform="translate(0 .5)" d="M0 0h156v188H0z"/></clipPath></defs></svg>