<svg width="171" height="195" fill="none" xmlns="http://www.w3.org/2000/svg"><g clip-path="url(#a)"><path d="M77.7 174.64c-.11-.13-10.5-13-12.61-15.76a6.86 6.86 0 0 0-5.6-2.68c-2.56 0-4.83 1.17-5.51 1.55l-5.49 2.74c-1.77-.48-5.58-1.95-9.28-6.26-3.28-3.84-3.26-8.99-3.08-11.1l5.9-5.9a6.56 6.56 0 0 0 1.24-8.43l-.22-.3L28.38 110a5.2 5.2 0 0 0-4.18-1.94c-2.85 0-5.88 1.97-6.76 2.59C6.56 118.4 5.86 125.2 5.81 125.96l-.02.42.07.4c6.41 35.73 26.03 51.14 35.45 58.55 1.15.9 2.14 1.68 2.86 2.3A25.53 25.53 0 0 0 60.72 194c2.38 0 4.48-.4 6.09-1.17 4.37-2.08 9.43-8.01 10.87-9.78 2.5-3.06 1.29-6.6.17-8.2l-.16-.21ZM63.8 186.5c-.5.24-1.57.49-3.08.49a18.7 18.7 0 0 1-11.94-4.63c-.86-.75-1.92-1.58-3.14-2.55-8.7-6.82-26.73-21-32.78-53.68.29-.98 1.83-4.94 8.62-9.77.65-.45 1.5-.9 2.12-1.14l13.5 17.03-7.53 7.53-.2 1.05c-.08.42-1.91 10.4 4.52 17.94 6.29 7.35 13.25 8.66 14.59 8.85l1.08.16 7.64-3.83.22-.11a5.28 5.28 0 0 1 2.16-.65 1632.26 1632.26 0 0 0 12.5 15.64c-2.56 3.09-6.17 6.66-8.28 7.67ZM137.85 65.82c5.51-5.17 7.16-11.97 5.03-20.78a2.5 2.5 0 0 0-4.1-1.27l-8.22 7.4c-1.44-.8-3.68-2.45-4.47-5.33l6.8-6.73c.95-.94 1-2.45.11-3.44l-.19-.21c-.19-.22-.42-.4-.67-.53a20.4 20.4 0 0 0-8.83-2.12c-4.7 0-8.86 1.92-12 5.56-6 6.94-4.56 15.04-3.54 18.47l-3.49 3.49L94 51.09l4.71-3.27L78.67 34.1l-10.6 10.6 13.72 20.04 3.27-4.71L94.3 70.3 91 73.6a22.31 22.31 0 0 0-6.66-1.06 18.22 18.22 0 0 0-13.96 6.36c-.27.33-6.6 8.17-2.75 18.62a2.5 2.5 0 0 0 3.99 1.02l8.3-7.26c1.32.57 3.62 2.08 4.65 5.93l-7.38 7.51a2.5 2.5 0 0 0 1.22 4.19c.1.02 2.72.62 6.17.62 6.84 0 12.11-2.27 15.25-6.57a20.93 20.93 0 0 0 4-13.08l16.2 16.21.18.16a12.28 12.28 0 0 0 7.45 2.73c2.23 0 4.63-.74 6.85-2.83l5.52-5.51.1-.1c5.02-5.36 2.26-11.7.1-14.3L123.3 69.27c1.02.1 2.15.18 3.32.18 4.89 0 8.67-1.22 11.24-3.64Zm-53.3-13.84-2.73 3.95-7.28-10.63 4.73-4.73 10.63 7.28-3.95 2.73 14.79 13.29-4.1 4.09 1.2-1.2-13.29-14.78ZM98.11 85.5c.11.31 2.62 7.75-2.32 14.53-2.77 3.8-7.75 4.53-11.4 4.51l4.7-4.79c.56-.57.82-1.39.68-2.18-1.8-10.15-9.75-11.49-10.08-11.54-.73-.1-1.48.1-2.03.59l-6.2 5.43a14.7 14.7 0 0 1 2.75-9.93 13.13 13.13 0 0 1 10.13-4.57c3.51 0 6.23 1.21 6.25 1.22a2.5 2.5 0 0 0 2.82-.5l19-19a2.5 2.5 0 0 0 .52-2.76c-.03-.08-3.5-8.34 2.16-14.87a10.48 10.48 0 0 1 8.22-3.83c1.23 0 2.38.18 3.37.42l-5.05 5a2.5 2.5 0 0 0-.73 2.08c1.02 8.3 8.97 11.07 9.31 11.19.86.28 1.8.09 2.47-.52l6.05-5.44c.38 4.86-1.02 8.55-4.3 11.64-2.01 1.89-5.37 2.28-7.82 2.28-3.7 0-6.95-.86-6.99-.87a2.5 2.5 0 0 0-2.43.65L98.7 82.91c-.67.68-.89 1.69-.58 2.6Zm5.5 1.84v.01Zm-.18-1.12Zm33.1 10.86-5.48 5.48c-3.25 2.97-6.9.43-7.58-.1l-18.64-18.64 14.94-15.07-2.04 2.05 18.71 18.7c.46.6 3.1 4.3.09 7.58Zm-15.21-28.05Zm-.85-.15.07.01h-.07Z" fill="#fff"/><path d="M104.16 6a65.92 65.92 0 0 0-8.52 131.28v26.22s57.44-21.24 71.97-73.62l.2-.81.34-1.28.18-.77A65.92 65.92 0 0 0 104.17 6Zm57.35 79.42v.03l-.01.03-.03.13-.12.51-.3 1.16-.1.4-.09.33c-5.56 20.05-18.52 37.7-38.5 52.44a143.41 143.41 0 0 1-19.72 12.18V131.12l-6.1-.78a59 59 0 0 1-51.3-58.42A58.99 58.99 0 0 1 104.16 13a58.99 58.99 0 0 1 57.35 72.42Z" fill="#fff"/><path d="M54.58 188c-2.79 0-9.99-.62-16.55-6.37-.72-.62-1.7-1.4-2.86-2.3-9.42-7.4-29.04-22.82-35.45-58.55l-.07-.4.02-.42c.05-.75.75-7.56 11.63-15.31.88-.62 3.91-2.6 6.76-2.6 1.7 0 3.2.7 4.18 1.95l14.67 18.5.22.3a6.56 6.56 0 0 1-1.25 8.44l-5.9 5.89c-.17 2.11-.19 7.26 3.1 11.1 3.69 4.31 7.5 5.79 9.27 6.27l5.5-2.75c.67-.38 2.94-1.55 5.5-1.55 2.29 0 4.27.95 5.6 2.68a1741.1 1741.1 0 0 0 12.6 15.76l.16.2c1.11 1.61 2.33 5.15-.17 8.21-1.45 1.77-6.5 7.7-10.87 9.78-1.6.76-3.71 1.17-6.09 1.17ZM6.72 120.14c6.05 32.68 24.09 46.85 32.78 53.68 1.23.97 2.28 1.8 3.14 2.55A18.7 18.7 0 0 0 54.58 181c1.51 0 2.59-.25 3.08-.5 2.11-1 5.73-4.57 8.29-7.67-1.4-1.73-10.36-12.83-12.5-15.63h-.1c-.73 0-1.78.48-2.07.65l-.21.11-7.65 3.83-1.08-.16c-1.33-.19-8.3-1.5-14.58-8.85-6.44-7.53-4.61-17.52-4.53-17.94l.2-1.06 7.53-7.52-13.5-17.03c-.61.23-1.47.69-2.12 1.14-6.8 4.83-8.33 8.8-8.62 9.77Z" fill="#3A3A3A"/><path d="M78.44 103.54c-3.45 0-6.06-.6-6.17-.62a2.5 2.5 0 0 1-1.22-4.19l7.38-7.52c-1.03-3.84-3.33-5.35-4.66-5.92l-8.29 7.26a2.5 2.5 0 0 1-4-1.02 19.63 19.63 0 0 1 2.76-18.62 18.22 18.22 0 0 1 13.96-6.36c2.78 0 5.16.57 6.66 1.05l16.77-16.76c-1.01-3.43-2.46-11.54 3.54-18.47a15.48 15.48 0 0 1 12-5.56c4.84 0 8.67 2.03 8.83 2.12.25.13.48.31.68.53l.18.2c.9 1 .85 2.51-.1 3.45l-6.8 6.73c.78 2.88 3.02 4.54 4.46 5.33l8.22-7.4a2.5 2.5 0 0 1 4.1 1.27c2.13 8.8.48 15.6-5.03 20.78-2.57 2.42-6.35 3.64-11.24 3.64-2.79 0-5.32-.4-6.84-.71L97.13 79.4c.73 3.18 1.63 10.62-3.44 17.57-3.13 4.3-8.4 6.57-15.25 6.57Zm-.2-5c3.66.01 8.64-.71 11.4-4.51 4.95-6.78 2.44-14.22 2.34-14.53-.32-.9-.1-1.91.58-2.6l18.5-18.66a2.5 2.5 0 0 1 2.43-.65c.03 0 3.3.87 6.98.87 2.46 0 5.81-.4 7.82-2.28 3.29-3.1 4.68-6.78 4.3-11.64l-6.04 5.44c-.67.6-1.62.8-2.47.51-.34-.11-8.3-2.89-9.31-11.19a2.5 2.5 0 0 1 .72-2.08l5.05-5c-.98-.23-2.14-.41-3.37-.41-3.25 0-6.02 1.29-8.22 3.82-5.65 6.54-2.19 14.8-2.15 14.88.4.94.2 2.03-.53 2.76l-19 19a2.5 2.5 0 0 1-2.82.5c-.02-.01-2.73-1.22-6.25-1.22-4 0-7.4 1.53-10.12 4.56-.35.45-3.29 4.38-2.76 9.94l6.2-5.43a2.5 2.5 0 0 1 2.03-.6c.34.06 8.29 1.4 10.08 11.54a2.5 2.5 0 0 1-.68 2.2l-4.7 4.78Z" fill="#F0C42E"/><path d="m78.92 54.03 9.24 10.28 3.54-3.54-13.29-14.8-2.73 3.96L68.4 39.3l4.73-4.73 10.63 7.28-3.95 2.73L94.6 57.87l3.54-3.55-10.28-9.23 4.71-3.27L72.53 28.1l-10.6 10.6 13.73 20.04 3.26-4.71ZM117.15 63.28a37.19 37.19 0 0 1-3.52-.53l-2.03 2.05 18.7 18.7c.46.6 3.1 4.3.09 7.58l-5.48 5.47c-3.25 2.98-6.9.44-7.58-.08L98.7 77.82l-1.56 1.58c.24 1.07.5 2.63.55 4.48l16.22 16.22.17.16a12.28 12.28 0 0 0 7.45 2.72c2.23 0 4.63-.74 6.86-2.82l5.51-5.51.1-.1c5.02-5.37 2.26-11.7.1-14.31l-16.94-16.96Z" fill="#3A3A3A"/><path d="M98.02 7a58.99 58.99 0 0 1 57.35 72.42v.03l-.01.03-.03.13a36.36 36.36 0 0 1-.42 1.67l-.1.4-.09.33c-5.56 20.05-18.52 37.7-38.5 52.44a143.42 143.42 0 0 1-19.72 12.17v-21.5l-6.1-.79a59 59 0 0 1-51.3-58.4A58.99 58.99 0 0 1 98.02 7Zm0-7a65.92 65.92 0 0 0-8.52 131.28v26.22s57.44-21.24 71.97-73.62l.21-.81.33-1.28.18-.77A65.92 65.92 0 0 0 98.03 0Z" fill="#3A3A3A"/></g><defs><clipPath id="a"><path fill="#fff" d="M0 0h171v195H0z"/></clipPath></defs></svg>