<svg width="145" height="36" fill="none" xmlns="http://www.w3.org/2000/svg"><path d="M27.22 0v35.3h-7.6v-2.4c-1.7 1.9-4.1 3.1-7.51 3.1C5.5 36 0 30.2 0 22.7 0 15.2 5.5 9.4 12.1 9.4c3.41 0 5.91 1.2 7.51 3.1V0h7.6Zm-7.6 22.7c0-3.8-2.5-6.2-6.01-6.2-3.5 0-6 2.4-6 6.2 0 3.8 2.5 6.2 6 6.2 3.5-.1 6-2.4 6-6.2ZM43.73 29.2c2.1 0 3.8-.8 4.8-1.9l6.1 3.5c-2.5 3.4-6.2 5.2-11 5.2-8.6 0-14.01-5.8-14.01-13.3 0-7.5 5.4-13.3 13.41-13.3 7.4 0 12.8 5.7 12.8 13.3 0 1.1-.1 2.1-.3 3h-17.9c1 2.6 3.3 3.5 6.1 3.5Zm4.6-9.1c-.8-2.9-3.1-4-5.4-4-2.9 0-4.8 1.4-5.5 4h10.9ZM82.16 10.1l-9.31 25.2h-8.6l-9.31-25.2h8.4l5.3 16 5.31-16h8.2ZM83.46 10.1h7.6v25.2h-7.6V10.1ZM93.66 22.7c0-7.5 5.7-13.3 13.41-13.3 4.9 0 9.21 2.6 11.41 6.5l-6.6 3.8c-.9-1.8-2.7-2.8-4.9-2.8-3.3 0-5.71 2.4-5.71 5.8 0 3.5 2.4 5.8 5.7 5.8 2.2 0 4.1-1.1 4.9-2.8l6.61 3.8c-2.1 3.9-6.4 6.5-11.4 6.5-7.71 0-13.42-5.8-13.42-13.3ZM132.9 29.2c2.1 0 3.8-.8 4.8-1.9l6.1 3.5c-2.5 3.4-6.2 5.2-11 5.2-8.61 0-14.02-5.8-14.02-13.3 0-7.5 5.5-13.3 13.41-13.3 7.4 0 12.81 5.7 12.81 13.3 0 1.1-.1 2.1-.3 3h-17.91c1 2.6 3.3 3.5 6.1 3.5Zm4.7-9.1c-.8-2.9-3.1-4-5.4-4-2.91 0-4.81 1.4-5.51 4h10.9ZM83.46 0v10.1L91.06 0h-7.6Z" fill="#FFC700"/></svg>